<mxfile host="app.diagrams.net" modified="2024-07-15T02:22:49.033Z" agent="Mozilla/5.0 (Windows NT 10.0; Win64; x64) AppleWebKit/537.36 (KHTML, like Gecko) Chrome/126.0.0.0 Safari/537.36" etag="2jAuAeGR4SmJIRJHC7GF" version="24.6.5" type="github">
  <diagram name="페이지-1" id="zQ6fkaXsuuHTTgVvBU81">
    <mxGraphModel dx="2390" dy="2500" grid="1" gridSize="10" guides="1" tooltips="1" connect="1" arrows="1" fold="1" page="1" pageScale="1" pageWidth="1600" pageHeight="1200" math="0" shadow="0">
      <root>
        <mxCell id="0" />
        <mxCell id="1" parent="0" />
        <mxCell id="xCrO2otD32kf0nrUWIwl-112" style="edgeStyle=orthogonalEdgeStyle;rounded=0;orthogonalLoop=1;jettySize=auto;html=1;exitX=0.5;exitY=0;exitDx=0;exitDy=0;entryX=0;entryY=0.5;entryDx=0;entryDy=0;fillColor=#e1d5e7;strokeColor=#9673a6;strokeWidth=3;" edge="1" parent="1" source="xCrO2otD32kf0nrUWIwl-109" target="xCrO2otD32kf0nrUWIwl-15">
          <mxGeometry relative="1" as="geometry" />
        </mxCell>
        <mxCell id="xCrO2otD32kf0nrUWIwl-105" style="edgeStyle=orthogonalEdgeStyle;rounded=0;orthogonalLoop=1;jettySize=auto;html=1;exitX=0;exitY=0;exitDx=20;exitDy=160;exitPerimeter=0;entryX=0.5;entryY=0;entryDx=0;entryDy=0;strokeWidth=4;fillColor=#f8cecc;strokeColor=#b85450;" edge="1" parent="1" source="xCrO2otD32kf0nrUWIwl-9" target="xCrO2otD32kf0nrUWIwl-90">
          <mxGeometry relative="1" as="geometry" />
        </mxCell>
        <mxCell id="xCrO2otD32kf0nrUWIwl-2" value="&lt;font style=&quot;font-size: 31px;&quot;&gt;Main&lt;/font&gt;" style="ellipse;whiteSpace=wrap;html=1;aspect=fixed;fontStyle=1;fontSize=31;fillColor=#d5e8d4;strokeColor=#82b366;" vertex="1" parent="1">
          <mxGeometry y="520" width="160" height="160" as="geometry" />
        </mxCell>
        <mxCell id="xCrO2otD32kf0nrUWIwl-119" style="edgeStyle=orthogonalEdgeStyle;rounded=0;orthogonalLoop=1;jettySize=auto;html=1;entryX=0;entryY=0.5;entryDx=0;entryDy=0;shape=flexArrow;strokeWidth=3;" edge="1" parent="1" target="xCrO2otD32kf0nrUWIwl-14">
          <mxGeometry relative="1" as="geometry">
            <mxPoint x="540" y="600" as="sourcePoint" />
            <Array as="points">
              <mxPoint x="540" y="600" />
            </Array>
          </mxGeometry>
        </mxCell>
        <mxCell id="xCrO2otD32kf0nrUWIwl-4" value="설명을&lt;div&gt;들으시겠습니까?&lt;/div&gt;&lt;div&gt;while(&lt;font color=&quot;#ff6666&quot;&gt;Input.rule&lt;/font&gt;)&lt;/div&gt;" style="shape=cube;whiteSpace=wrap;html=1;boundedLbl=1;backgroundOutline=1;darkOpacity=0.05;darkOpacity2=0.1;fontSize=26;fontStyle=1;fillColor=#d5e8d4;strokeColor=#82b366;" vertex="1" parent="1">
          <mxGeometry x="300" y="520" width="240" height="160" as="geometry" />
        </mxCell>
        <mxCell id="xCrO2otD32kf0nrUWIwl-12" value="종료" style="ellipse;whiteSpace=wrap;html=1;aspect=fixed;fontStyle=1;fontSize=31;fillColor=#d5e8d4;strokeColor=#82b366;" vertex="1" parent="1">
          <mxGeometry x="1480" y="690" width="110" height="110" as="geometry" />
        </mxCell>
        <mxCell id="xCrO2otD32kf0nrUWIwl-14" value="" style="swimlane;startSize=0;fillColor=default;strokeColor=#82b366;swimlaneLine=1;strokeWidth=5;" vertex="1" parent="1">
          <mxGeometry x="680" y="290" width="620" height="620" as="geometry" />
        </mxCell>
        <mxCell id="xCrO2otD32kf0nrUWIwl-15" value="&lt;font style=&quot;font-size: 26px;&quot;&gt;While(&lt;b&gt;&lt;font color=&quot;#ff99ff&quot;&gt;input.&lt;/font&gt;&lt;/b&gt;&lt;font color=&quot;#ff99ff&quot;&gt;&lt;b&gt;replay&lt;/b&gt;&lt;/font&gt;)&lt;/font&gt;" style="rounded=0;whiteSpace=wrap;html=1;fillColor=#d5e8d4;strokeColor=#82b366;" vertex="1" parent="xCrO2otD32kf0nrUWIwl-14">
          <mxGeometry width="620" height="60" as="geometry" />
        </mxCell>
        <mxCell id="xCrO2otD32kf0nrUWIwl-6" value="Play.play" style="shape=cube;whiteSpace=wrap;html=1;boundedLbl=1;backgroundOutline=1;darkOpacity=0.05;darkOpacity2=0.1;fontSize=26;fontStyle=1;fillColor=#dae8fc;strokeColor=#6c8ebf;" vertex="1" parent="xCrO2otD32kf0nrUWIwl-14">
          <mxGeometry x="200" y="120" width="240" height="160" as="geometry" />
        </mxCell>
        <mxCell id="xCrO2otD32kf0nrUWIwl-9" value="&lt;div&gt;다시&lt;/div&gt;&lt;div&gt;하시겠습니까?&lt;/div&gt;&lt;div style=&quot;font-size: 21px;&quot;&gt;&lt;font style=&quot;font-size: 21px;&quot;&gt;while(&lt;font style=&quot;font-size: 21px;&quot; color=&quot;#ff6666&quot;&gt;input.doReplay&lt;/font&gt;)&lt;/font&gt;&lt;br&gt;&lt;/div&gt;" style="shape=cube;whiteSpace=wrap;html=1;boundedLbl=1;backgroundOutline=1;darkOpacity=0.05;darkOpacity2=0.1;fontSize=26;fontStyle=1;fillColor=#d5e8d4;strokeColor=#82b366;" vertex="1" parent="xCrO2otD32kf0nrUWIwl-14">
          <mxGeometry x="200" y="400" width="240" height="160" as="geometry" />
        </mxCell>
        <mxCell id="xCrO2otD32kf0nrUWIwl-16" style="edgeStyle=orthogonalEdgeStyle;rounded=0;orthogonalLoop=1;jettySize=auto;html=1;exitX=0;exitY=0;exitDx=240;exitDy=90;exitPerimeter=0;entryX=0;entryY=0;entryDx=240;entryDy=90;entryPerimeter=0;strokeWidth=4;fillColor=#d5e8d4;strokeColor=#82b366;" edge="1" parent="xCrO2otD32kf0nrUWIwl-14" source="xCrO2otD32kf0nrUWIwl-6" target="xCrO2otD32kf0nrUWIwl-9">
          <mxGeometry relative="1" as="geometry">
            <Array as="points">
              <mxPoint x="520" y="210" />
              <mxPoint x="520" y="490" />
            </Array>
          </mxGeometry>
        </mxCell>
        <mxCell id="xCrO2otD32kf0nrUWIwl-19" style="edgeStyle=orthogonalEdgeStyle;rounded=0;orthogonalLoop=1;jettySize=auto;html=1;exitX=0;exitY=0;exitDx=0;exitDy=70;exitPerimeter=0;entryX=0.193;entryY=1.005;entryDx=0;entryDy=0;entryPerimeter=0;strokeWidth=4;fillColor=#d5e8d4;strokeColor=#82b366;" edge="1" parent="xCrO2otD32kf0nrUWIwl-14" source="xCrO2otD32kf0nrUWIwl-9" target="xCrO2otD32kf0nrUWIwl-15">
          <mxGeometry relative="1" as="geometry">
            <Array as="points">
              <mxPoint x="120" y="470" />
            </Array>
          </mxGeometry>
        </mxCell>
        <mxCell id="xCrO2otD32kf0nrUWIwl-114" style="edgeStyle=orthogonalEdgeStyle;rounded=0;orthogonalLoop=1;jettySize=auto;html=1;exitX=0.5;exitY=1;exitDx=0;exitDy=0;entryX=0;entryY=0;entryDx=110.00000000000001;entryDy=0;entryPerimeter=0;fillColor=#d5e8d4;strokeColor=#82b366;strokeWidth=4;" edge="1" parent="xCrO2otD32kf0nrUWIwl-14" source="xCrO2otD32kf0nrUWIwl-15" target="xCrO2otD32kf0nrUWIwl-6">
          <mxGeometry relative="1" as="geometry" />
        </mxCell>
        <mxCell id="xCrO2otD32kf0nrUWIwl-20" value="&lt;font style=&quot;font-size: 31px;&quot;&gt;Input&lt;/font&gt;" style="ellipse;whiteSpace=wrap;html=1;aspect=fixed;fontStyle=1;fontSize=31;fillColor=#f8cecc;strokeColor=#b85450;" vertex="1" parent="1">
          <mxGeometry y="1070" width="160" height="160" as="geometry" />
        </mxCell>
        <mxCell id="xCrO2otD32kf0nrUWIwl-62" style="edgeStyle=orthogonalEdgeStyle;rounded=0;orthogonalLoop=1;jettySize=auto;html=1;exitX=0;exitY=0;exitDx=20;exitDy=160;exitPerimeter=0;entryX=0.5;entryY=0;entryDx=0;entryDy=0;strokeWidth=4;fillColor=#f8cecc;strokeColor=#b85450;" edge="1" parent="1" source="xCrO2otD32kf0nrUWIwl-4" target="xCrO2otD32kf0nrUWIwl-39">
          <mxGeometry relative="1" as="geometry" />
        </mxCell>
        <mxCell id="xCrO2otD32kf0nrUWIwl-63" style="edgeStyle=orthogonalEdgeStyle;rounded=0;orthogonalLoop=1;jettySize=auto;html=1;exitX=0.5;exitY=0;exitDx=0;exitDy=0;entryX=1;entryY=1;entryDx=0;entryDy=0;entryPerimeter=0;strokeWidth=4;fillColor=#f8cecc;strokeColor=#b85450;" edge="1" parent="1" source="xCrO2otD32kf0nrUWIwl-44" target="xCrO2otD32kf0nrUWIwl-4">
          <mxGeometry relative="1" as="geometry" />
        </mxCell>
        <mxCell id="xCrO2otD32kf0nrUWIwl-64" value="" style="group" vertex="1" connectable="0" parent="1">
          <mxGeometry x="180" y="990" width="660" height="320" as="geometry" />
        </mxCell>
        <mxCell id="xCrO2otD32kf0nrUWIwl-25" value="" style="swimlane;startSize=0;" vertex="1" parent="xCrO2otD32kf0nrUWIwl-64">
          <mxGeometry y="60" width="660" height="260" as="geometry" />
        </mxCell>
        <mxCell id="xCrO2otD32kf0nrUWIwl-43" value="" style="edgeStyle=orthogonalEdgeStyle;rounded=0;orthogonalLoop=1;jettySize=auto;html=1;curved=1;" edge="1" parent="xCrO2otD32kf0nrUWIwl-25" source="xCrO2otD32kf0nrUWIwl-39" target="xCrO2otD32kf0nrUWIwl-42">
          <mxGeometry relative="1" as="geometry" />
        </mxCell>
        <mxCell id="xCrO2otD32kf0nrUWIwl-54" style="edgeStyle=orthogonalEdgeStyle;rounded=0;orthogonalLoop=1;jettySize=auto;html=1;exitX=0.5;exitY=1;exitDx=0;exitDy=0;entryX=0.5;entryY=0;entryDx=0;entryDy=0;" edge="1" parent="xCrO2otD32kf0nrUWIwl-25" source="xCrO2otD32kf0nrUWIwl-39" target="xCrO2otD32kf0nrUWIwl-48">
          <mxGeometry relative="1" as="geometry">
            <Array as="points">
              <mxPoint x="80" y="90" />
              <mxPoint x="360" y="90" />
            </Array>
          </mxGeometry>
        </mxCell>
        <mxCell id="xCrO2otD32kf0nrUWIwl-55" style="edgeStyle=orthogonalEdgeStyle;rounded=0;orthogonalLoop=1;jettySize=auto;html=1;exitX=0.5;exitY=1;exitDx=0;exitDy=0;entryX=0.5;entryY=0;entryDx=0;entryDy=0;" edge="1" parent="xCrO2otD32kf0nrUWIwl-25" source="xCrO2otD32kf0nrUWIwl-39" target="xCrO2otD32kf0nrUWIwl-46">
          <mxGeometry relative="1" as="geometry">
            <Array as="points">
              <mxPoint x="80" y="90" />
              <mxPoint x="220" y="90" />
            </Array>
          </mxGeometry>
        </mxCell>
        <mxCell id="xCrO2otD32kf0nrUWIwl-39" value="&lt;b&gt;&lt;font style=&quot;font-size: 26px;&quot;&gt;input&lt;/font&gt;&lt;/b&gt;" style="rounded=0;whiteSpace=wrap;html=1;fillColor=#f8cecc;strokeColor=#b85450;" vertex="1" parent="xCrO2otD32kf0nrUWIwl-25">
          <mxGeometry x="20" y="20" width="120" height="60" as="geometry" />
        </mxCell>
        <mxCell id="xCrO2otD32kf0nrUWIwl-56" style="edgeStyle=orthogonalEdgeStyle;rounded=0;orthogonalLoop=1;jettySize=auto;html=1;exitX=0.5;exitY=1;exitDx=0;exitDy=0;entryX=0.5;entryY=0;entryDx=0;entryDy=0;" edge="1" parent="xCrO2otD32kf0nrUWIwl-25" source="xCrO2otD32kf0nrUWIwl-42" target="xCrO2otD32kf0nrUWIwl-53">
          <mxGeometry relative="1" as="geometry" />
        </mxCell>
        <mxCell id="xCrO2otD32kf0nrUWIwl-42" value="y" style="whiteSpace=wrap;html=1;rounded=0;fontSize=26;" vertex="1" parent="xCrO2otD32kf0nrUWIwl-25">
          <mxGeometry x="20" y="110" width="120" height="60" as="geometry" />
        </mxCell>
        <mxCell id="xCrO2otD32kf0nrUWIwl-44" value="&lt;b&gt;&lt;font style=&quot;font-size: 26px;&quot;&gt;boolean&lt;/font&gt;&lt;/b&gt;" style="rounded=0;whiteSpace=wrap;html=1;fillColor=#f8cecc;strokeColor=#b85450;fontColor=#FF6666;" vertex="1" parent="xCrO2otD32kf0nrUWIwl-25">
          <mxGeometry x="520" y="10" width="120" height="60" as="geometry" />
        </mxCell>
        <mxCell id="xCrO2otD32kf0nrUWIwl-58" style="edgeStyle=orthogonalEdgeStyle;rounded=0;orthogonalLoop=1;jettySize=auto;html=1;exitX=0.5;exitY=1;exitDx=0;exitDy=0;" edge="1" parent="xCrO2otD32kf0nrUWIwl-25" source="xCrO2otD32kf0nrUWIwl-46">
          <mxGeometry relative="1" as="geometry">
            <mxPoint x="580" y="70" as="targetPoint" />
            <Array as="points">
              <mxPoint x="220" y="220" />
              <mxPoint x="581" y="220" />
              <mxPoint x="581" y="70" />
            </Array>
          </mxGeometry>
        </mxCell>
        <mxCell id="xCrO2otD32kf0nrUWIwl-46" value="n" style="whiteSpace=wrap;html=1;rounded=0;fontSize=26;" vertex="1" parent="xCrO2otD32kf0nrUWIwl-25">
          <mxGeometry x="160" y="110" width="120" height="60" as="geometry" />
        </mxCell>
        <mxCell id="xCrO2otD32kf0nrUWIwl-50" value="" style="edgeStyle=orthogonalEdgeStyle;rounded=0;orthogonalLoop=1;jettySize=auto;html=1;exitX=0.75;exitY=0;exitDx=0;exitDy=0;entryX=0.75;entryY=1;entryDx=0;entryDy=0;" edge="1" parent="xCrO2otD32kf0nrUWIwl-25" source="xCrO2otD32kf0nrUWIwl-48" target="xCrO2otD32kf0nrUWIwl-49">
          <mxGeometry relative="1" as="geometry" />
        </mxCell>
        <mxCell id="xCrO2otD32kf0nrUWIwl-48" value="else" style="whiteSpace=wrap;html=1;rounded=0;fontSize=26;" vertex="1" parent="xCrO2otD32kf0nrUWIwl-25">
          <mxGeometry x="300" y="110" width="120" height="60" as="geometry" />
        </mxCell>
        <mxCell id="xCrO2otD32kf0nrUWIwl-51" style="edgeStyle=orthogonalEdgeStyle;rounded=0;orthogonalLoop=1;jettySize=auto;html=1;exitX=1;exitY=0.5;exitDx=0;exitDy=0;entryX=0;entryY=0.5;entryDx=0;entryDy=0;" edge="1" parent="xCrO2otD32kf0nrUWIwl-25" source="xCrO2otD32kf0nrUWIwl-49" target="xCrO2otD32kf0nrUWIwl-44">
          <mxGeometry relative="1" as="geometry" />
        </mxCell>
        <mxCell id="xCrO2otD32kf0nrUWIwl-52" value="&lt;font style=&quot;font-size: 22px;&quot;&gt;true&lt;/font&gt;" style="edgeLabel;html=1;align=center;verticalAlign=middle;resizable=0;points=[];fontColor=#FF6666;" vertex="1" connectable="0" parent="xCrO2otD32kf0nrUWIwl-51">
          <mxGeometry x="0.1629" y="-5" relative="1" as="geometry">
            <mxPoint x="-9" y="-5" as="offset" />
          </mxGeometry>
        </mxCell>
        <mxCell id="xCrO2otD32kf0nrUWIwl-49" value="&lt;font style=&quot;font-size: 20px;&quot;&gt;&lt;b&gt;다시 입력해 주세요&lt;/b&gt;&lt;/font&gt;" style="whiteSpace=wrap;html=1;fontSize=26;rounded=0;fillColor=#fff2cc;strokeColor=#d6b656;" vertex="1" parent="xCrO2otD32kf0nrUWIwl-25">
          <mxGeometry x="300" y="10" width="120" height="60" as="geometry" />
        </mxCell>
        <mxCell id="xCrO2otD32kf0nrUWIwl-57" style="edgeStyle=orthogonalEdgeStyle;rounded=0;orthogonalLoop=1;jettySize=auto;html=1;exitX=1;exitY=0.5;exitDx=0;exitDy=0;entryX=0.5;entryY=1;entryDx=0;entryDy=0;" edge="1" parent="xCrO2otD32kf0nrUWIwl-25" source="xCrO2otD32kf0nrUWIwl-53" target="xCrO2otD32kf0nrUWIwl-44">
          <mxGeometry relative="1" as="geometry" />
        </mxCell>
        <mxCell id="xCrO2otD32kf0nrUWIwl-59" value="&lt;font style=&quot;font-size: 26px;&quot;&gt;false&lt;/font&gt;" style="edgeLabel;html=1;align=center;verticalAlign=middle;resizable=0;points=[];fontColor=#FF6666;" vertex="1" connectable="0" parent="xCrO2otD32kf0nrUWIwl-57">
          <mxGeometry x="-0.1007" y="4" relative="1" as="geometry">
            <mxPoint x="-46" y="4" as="offset" />
          </mxGeometry>
        </mxCell>
        <mxCell id="xCrO2otD32kf0nrUWIwl-53" value="&lt;span style=&quot;font-size: 20px;&quot;&gt;&lt;b&gt;(설명)&lt;/b&gt;&lt;/span&gt;" style="whiteSpace=wrap;html=1;fontSize=26;rounded=0;fillColor=#fff2cc;strokeColor=#d6b656;" vertex="1" parent="xCrO2otD32kf0nrUWIwl-25">
          <mxGeometry x="20" y="190" width="120" height="60" as="geometry" />
        </mxCell>
        <mxCell id="xCrO2otD32kf0nrUWIwl-61" value="&lt;font style=&quot;font-size: 20px;&quot;&gt;public static boolean rule(String input)&lt;/font&gt;" style="rounded=0;whiteSpace=wrap;html=1;fillColor=#f8cecc;strokeColor=#b85450;" vertex="1" parent="xCrO2otD32kf0nrUWIwl-64">
          <mxGeometry width="350" height="60" as="geometry" />
        </mxCell>
        <mxCell id="xCrO2otD32kf0nrUWIwl-85" value="" style="group" vertex="1" connectable="0" parent="1">
          <mxGeometry x="890" y="990" width="660" height="320" as="geometry" />
        </mxCell>
        <mxCell id="xCrO2otD32kf0nrUWIwl-86" value="" style="swimlane;startSize=0;" vertex="1" parent="xCrO2otD32kf0nrUWIwl-85">
          <mxGeometry y="60" width="660" height="260" as="geometry" />
        </mxCell>
        <mxCell id="xCrO2otD32kf0nrUWIwl-87" value="" style="edgeStyle=orthogonalEdgeStyle;rounded=0;orthogonalLoop=1;jettySize=auto;html=1;curved=1;" edge="1" parent="xCrO2otD32kf0nrUWIwl-86" source="xCrO2otD32kf0nrUWIwl-90" target="xCrO2otD32kf0nrUWIwl-92">
          <mxGeometry relative="1" as="geometry" />
        </mxCell>
        <mxCell id="xCrO2otD32kf0nrUWIwl-88" style="edgeStyle=orthogonalEdgeStyle;rounded=0;orthogonalLoop=1;jettySize=auto;html=1;exitX=0.5;exitY=1;exitDx=0;exitDy=0;entryX=0.5;entryY=0;entryDx=0;entryDy=0;" edge="1" parent="xCrO2otD32kf0nrUWIwl-86" source="xCrO2otD32kf0nrUWIwl-90" target="xCrO2otD32kf0nrUWIwl-97">
          <mxGeometry relative="1" as="geometry">
            <Array as="points">
              <mxPoint x="80" y="90" />
              <mxPoint x="360" y="90" />
            </Array>
          </mxGeometry>
        </mxCell>
        <mxCell id="xCrO2otD32kf0nrUWIwl-89" style="edgeStyle=orthogonalEdgeStyle;rounded=0;orthogonalLoop=1;jettySize=auto;html=1;exitX=0.5;exitY=1;exitDx=0;exitDy=0;entryX=0.5;entryY=0;entryDx=0;entryDy=0;" edge="1" parent="xCrO2otD32kf0nrUWIwl-86" source="xCrO2otD32kf0nrUWIwl-90" target="xCrO2otD32kf0nrUWIwl-95">
          <mxGeometry relative="1" as="geometry">
            <Array as="points">
              <mxPoint x="80" y="90" />
              <mxPoint x="220" y="90" />
            </Array>
          </mxGeometry>
        </mxCell>
        <mxCell id="xCrO2otD32kf0nrUWIwl-90" value="&lt;b&gt;&lt;font style=&quot;font-size: 26px;&quot;&gt;input&lt;/font&gt;&lt;/b&gt;" style="rounded=0;whiteSpace=wrap;html=1;fillColor=#f8cecc;strokeColor=#b85450;" vertex="1" parent="xCrO2otD32kf0nrUWIwl-86">
          <mxGeometry x="20" y="20" width="120" height="60" as="geometry" />
        </mxCell>
        <mxCell id="xCrO2otD32kf0nrUWIwl-91" style="edgeStyle=orthogonalEdgeStyle;rounded=0;orthogonalLoop=1;jettySize=auto;html=1;exitX=0.5;exitY=1;exitDx=0;exitDy=0;entryX=0.5;entryY=0;entryDx=0;entryDy=0;" edge="1" parent="xCrO2otD32kf0nrUWIwl-86" source="xCrO2otD32kf0nrUWIwl-92" target="xCrO2otD32kf0nrUWIwl-103">
          <mxGeometry relative="1" as="geometry" />
        </mxCell>
        <mxCell id="xCrO2otD32kf0nrUWIwl-92" value="y" style="whiteSpace=wrap;html=1;rounded=0;fontSize=26;" vertex="1" parent="xCrO2otD32kf0nrUWIwl-86">
          <mxGeometry x="20" y="110" width="120" height="60" as="geometry" />
        </mxCell>
        <mxCell id="xCrO2otD32kf0nrUWIwl-93" value="&lt;b&gt;&lt;font style=&quot;font-size: 26px;&quot;&gt;boolean&lt;/font&gt;&lt;/b&gt;" style="rounded=0;whiteSpace=wrap;html=1;fillColor=#f8cecc;strokeColor=#b85450;fontColor=#FF6666;" vertex="1" parent="xCrO2otD32kf0nrUWIwl-86">
          <mxGeometry x="520" y="10" width="120" height="60" as="geometry" />
        </mxCell>
        <mxCell id="xCrO2otD32kf0nrUWIwl-108" style="edgeStyle=orthogonalEdgeStyle;rounded=0;orthogonalLoop=1;jettySize=auto;html=1;exitX=0.5;exitY=1;exitDx=0;exitDy=0;entryX=0.5;entryY=0;entryDx=0;entryDy=0;" edge="1" parent="xCrO2otD32kf0nrUWIwl-86" source="xCrO2otD32kf0nrUWIwl-95" target="xCrO2otD32kf0nrUWIwl-107">
          <mxGeometry relative="1" as="geometry" />
        </mxCell>
        <mxCell id="xCrO2otD32kf0nrUWIwl-95" value="n" style="whiteSpace=wrap;html=1;rounded=0;fontSize=26;" vertex="1" parent="xCrO2otD32kf0nrUWIwl-86">
          <mxGeometry x="160" y="110" width="120" height="60" as="geometry" />
        </mxCell>
        <mxCell id="xCrO2otD32kf0nrUWIwl-96" value="" style="edgeStyle=orthogonalEdgeStyle;rounded=0;orthogonalLoop=1;jettySize=auto;html=1;exitX=0.75;exitY=0;exitDx=0;exitDy=0;entryX=0.75;entryY=1;entryDx=0;entryDy=0;" edge="1" parent="xCrO2otD32kf0nrUWIwl-86" source="xCrO2otD32kf0nrUWIwl-97" target="xCrO2otD32kf0nrUWIwl-100">
          <mxGeometry relative="1" as="geometry" />
        </mxCell>
        <mxCell id="xCrO2otD32kf0nrUWIwl-97" value="else" style="whiteSpace=wrap;html=1;rounded=0;fontSize=26;" vertex="1" parent="xCrO2otD32kf0nrUWIwl-86">
          <mxGeometry x="300" y="110" width="120" height="60" as="geometry" />
        </mxCell>
        <mxCell id="xCrO2otD32kf0nrUWIwl-98" style="edgeStyle=orthogonalEdgeStyle;rounded=0;orthogonalLoop=1;jettySize=auto;html=1;exitX=1;exitY=0.5;exitDx=0;exitDy=0;entryX=0;entryY=0.5;entryDx=0;entryDy=0;" edge="1" parent="xCrO2otD32kf0nrUWIwl-86" source="xCrO2otD32kf0nrUWIwl-100" target="xCrO2otD32kf0nrUWIwl-93">
          <mxGeometry relative="1" as="geometry" />
        </mxCell>
        <mxCell id="xCrO2otD32kf0nrUWIwl-99" value="&lt;font style=&quot;font-size: 22px;&quot;&gt;true&lt;/font&gt;" style="edgeLabel;html=1;align=center;verticalAlign=middle;resizable=0;points=[];fontColor=#FF6666;" vertex="1" connectable="0" parent="xCrO2otD32kf0nrUWIwl-98">
          <mxGeometry x="0.1629" y="-5" relative="1" as="geometry">
            <mxPoint x="-9" y="-5" as="offset" />
          </mxGeometry>
        </mxCell>
        <mxCell id="xCrO2otD32kf0nrUWIwl-100" value="&lt;font style=&quot;font-size: 20px;&quot;&gt;&lt;b&gt;다시 입력해 주세요&lt;/b&gt;&lt;/font&gt;" style="whiteSpace=wrap;html=1;fontSize=26;rounded=0;fillColor=#fff2cc;strokeColor=#d6b656;" vertex="1" parent="xCrO2otD32kf0nrUWIwl-86">
          <mxGeometry x="300" y="10" width="120" height="60" as="geometry" />
        </mxCell>
        <mxCell id="xCrO2otD32kf0nrUWIwl-101" style="edgeStyle=orthogonalEdgeStyle;rounded=0;orthogonalLoop=1;jettySize=auto;html=1;exitX=1;exitY=0.5;exitDx=0;exitDy=0;entryX=0.5;entryY=1;entryDx=0;entryDy=0;" edge="1" parent="xCrO2otD32kf0nrUWIwl-86" source="xCrO2otD32kf0nrUWIwl-103" target="xCrO2otD32kf0nrUWIwl-93">
          <mxGeometry relative="1" as="geometry" />
        </mxCell>
        <mxCell id="xCrO2otD32kf0nrUWIwl-102" value="&lt;font style=&quot;font-size: 26px;&quot;&gt;false&lt;/font&gt;" style="edgeLabel;html=1;align=center;verticalAlign=middle;resizable=0;points=[];fontColor=#FF6666;" vertex="1" connectable="0" parent="xCrO2otD32kf0nrUWIwl-101">
          <mxGeometry x="-0.1007" y="4" relative="1" as="geometry">
            <mxPoint x="-46" y="4" as="offset" />
          </mxGeometry>
        </mxCell>
        <mxCell id="xCrO2otD32kf0nrUWIwl-103" value="&lt;span style=&quot;font-size: 20px;&quot;&gt;&lt;span&gt;&lt;font color=&quot;#ff99ff&quot;&gt;replay&lt;/font&gt;=true&lt;/span&gt;&lt;/span&gt;" style="whiteSpace=wrap;html=1;fontSize=26;rounded=0;fillColor=#e1d5e7;strokeColor=#9673a6;labelBorderColor=none;fontStyle=1;horizontal=1;" vertex="1" parent="xCrO2otD32kf0nrUWIwl-86">
          <mxGeometry x="20" y="190" width="120" height="60" as="geometry" />
        </mxCell>
        <mxCell id="xCrO2otD32kf0nrUWIwl-111" style="edgeStyle=orthogonalEdgeStyle;rounded=0;orthogonalLoop=1;jettySize=auto;html=1;exitX=0.5;exitY=1;exitDx=0;exitDy=0;strokeWidth=3;fillColor=#e1d5e7;strokeColor=#9673a6;" edge="1" parent="xCrO2otD32kf0nrUWIwl-86" source="xCrO2otD32kf0nrUWIwl-107">
          <mxGeometry relative="1" as="geometry">
            <mxPoint x="-810" y="260" as="targetPoint" />
            <Array as="points">
              <mxPoint x="220" y="360" />
              <mxPoint x="-810" y="360" />
            </Array>
          </mxGeometry>
        </mxCell>
        <mxCell id="xCrO2otD32kf0nrUWIwl-107" value="&lt;span style=&quot;font-size: 20px;&quot;&gt;&lt;b&gt;&lt;font color=&quot;#ff99ff&quot;&gt;replay&lt;/font&gt;=false&lt;/b&gt;&lt;/span&gt;" style="whiteSpace=wrap;html=1;fontSize=26;rounded=0;fillColor=#e1d5e7;strokeColor=#9673a6;" vertex="1" parent="xCrO2otD32kf0nrUWIwl-86">
          <mxGeometry x="160" y="190" width="120" height="60" as="geometry" />
        </mxCell>
        <mxCell id="xCrO2otD32kf0nrUWIwl-104" value="&lt;font style=&quot;font-size: 20px;&quot;&gt;public boolean doReplay(String input)&lt;/font&gt;" style="rounded=0;whiteSpace=wrap;html=1;fillColor=#f8cecc;strokeColor=#b85450;" vertex="1" parent="xCrO2otD32kf0nrUWIwl-85">
          <mxGeometry width="350" height="60" as="geometry" />
        </mxCell>
        <mxCell id="xCrO2otD32kf0nrUWIwl-106" style="edgeStyle=orthogonalEdgeStyle;rounded=0;orthogonalLoop=1;jettySize=auto;html=1;exitX=0.5;exitY=0;exitDx=0;exitDy=0;entryX=1;entryY=1;entryDx=0;entryDy=0;entryPerimeter=0;strokeWidth=4;fillColor=#f8cecc;strokeColor=#b85450;" edge="1" parent="1" source="xCrO2otD32kf0nrUWIwl-93" target="xCrO2otD32kf0nrUWIwl-9">
          <mxGeometry relative="1" as="geometry">
            <Array as="points">
              <mxPoint x="1470" y="850" />
            </Array>
          </mxGeometry>
        </mxCell>
        <mxCell id="xCrO2otD32kf0nrUWIwl-109" value="&lt;font style=&quot;font-size: 21px;&quot;&gt;boolean &lt;font style=&quot;font-size: 21px;&quot; color=&quot;#ff99ff&quot;&gt;&lt;b&gt;replay&lt;/b&gt;&lt;/font&gt;&lt;/font&gt;" style="rounded=0;whiteSpace=wrap;html=1;fillColor=#e1d5e7;strokeColor=#9673a6;" vertex="1" parent="1">
          <mxGeometry x="20" y="1250" width="120" height="60" as="geometry" />
        </mxCell>
        <mxCell id="xCrO2otD32kf0nrUWIwl-110" style="edgeStyle=orthogonalEdgeStyle;rounded=0;orthogonalLoop=1;jettySize=auto;html=1;exitX=0.5;exitY=1;exitDx=0;exitDy=0;entryX=0.5;entryY=1;entryDx=0;entryDy=0;strokeWidth=3;fillColor=#e1d5e7;strokeColor=#9673a6;" edge="1" parent="1" source="xCrO2otD32kf0nrUWIwl-103" target="xCrO2otD32kf0nrUWIwl-109">
          <mxGeometry relative="1" as="geometry">
            <Array as="points">
              <mxPoint x="970" y="1360" />
              <mxPoint x="80" y="1360" />
            </Array>
          </mxGeometry>
        </mxCell>
        <mxCell id="xCrO2otD32kf0nrUWIwl-116" style="edgeStyle=orthogonalEdgeStyle;rounded=0;orthogonalLoop=1;jettySize=auto;html=1;exitX=1;exitY=0.5;exitDx=0;exitDy=0;entryX=-0.008;entryY=0.502;entryDx=0;entryDy=0;entryPerimeter=0;shape=flexArrow;strokeWidth=3;" edge="1" parent="1" source="xCrO2otD32kf0nrUWIwl-2" target="xCrO2otD32kf0nrUWIwl-4">
          <mxGeometry relative="1" as="geometry" />
        </mxCell>
        <mxCell id="xCrO2otD32kf0nrUWIwl-128" value="" style="swimlane;startSize=0;fillColor=#dae8fc;strokeColor=#6c8ebf;swimlaneLine=1;strokeWidth=5;" vertex="1" parent="1">
          <mxGeometry x="530" y="-400" width="620" height="620" as="geometry" />
        </mxCell>
        <mxCell id="xCrO2otD32kf0nrUWIwl-129" value="&lt;font style=&quot;font-size: 26px;&quot;&gt;While(&lt;b style=&quot;&quot;&gt;&lt;font color=&quot;#ff0000&quot;&gt;true&lt;/font&gt;&lt;/b&gt;)&lt;/font&gt;" style="rounded=0;whiteSpace=wrap;html=1;fillColor=#dae8fc;strokeColor=#6c8ebf;" vertex="1" parent="xCrO2otD32kf0nrUWIwl-128">
          <mxGeometry width="620" height="60" as="geometry" />
        </mxCell>
        <mxCell id="xCrO2otD32kf0nrUWIwl-150" value="" style="edgeStyle=orthogonalEdgeStyle;rounded=0;orthogonalLoop=1;jettySize=auto;html=1;strokeWidth=3;" edge="1" parent="xCrO2otD32kf0nrUWIwl-128" source="xCrO2otD32kf0nrUWIwl-146" target="xCrO2otD32kf0nrUWIwl-149">
          <mxGeometry relative="1" as="geometry" />
        </mxCell>
        <mxCell id="xCrO2otD32kf0nrUWIwl-152" value="" style="edgeStyle=orthogonalEdgeStyle;rounded=0;orthogonalLoop=1;jettySize=auto;html=1;strokeWidth=3;fillColor=#dae8fc;strokeColor=#6c8ebf;" edge="1" parent="xCrO2otD32kf0nrUWIwl-128" source="xCrO2otD32kf0nrUWIwl-146" target="xCrO2otD32kf0nrUWIwl-151">
          <mxGeometry relative="1" as="geometry" />
        </mxCell>
        <mxCell id="xCrO2otD32kf0nrUWIwl-146" value="&lt;font style=&quot;font-size: 20px;&quot;&gt;&lt;b style=&quot;&quot;&gt;Progress.&lt;/b&gt;&lt;/font&gt;&lt;div style=&quot;font-size: 20px;&quot;&gt;&lt;font style=&quot;font-size: 20px;&quot;&gt;&lt;b style=&quot;&quot;&gt;playerTurn&lt;/b&gt;&lt;/font&gt;&lt;/div&gt;" style="shape=cube;whiteSpace=wrap;html=1;boundedLbl=1;backgroundOutline=1;darkOpacity=0.05;darkOpacity2=0.1;fillColor=#ffe6cc;strokeColor=#d79b00;" vertex="1" parent="xCrO2otD32kf0nrUWIwl-128">
          <mxGeometry x="280" y="90" width="150" height="100" as="geometry" />
        </mxCell>
        <mxCell id="xCrO2otD32kf0nrUWIwl-149" value="false" style="whiteSpace=wrap;html=1;fontSize=21;fontStyle=1" vertex="1" parent="xCrO2otD32kf0nrUWIwl-128">
          <mxGeometry x="480" y="110" width="120" height="60" as="geometry" />
        </mxCell>
        <mxCell id="xCrO2otD32kf0nrUWIwl-151" value="true" style="whiteSpace=wrap;html=1;fontSize=21;fontStyle=1;fillColor=#dae8fc;strokeColor=#6c8ebf;" vertex="1" parent="xCrO2otD32kf0nrUWIwl-128">
          <mxGeometry x="60" y="110" width="120" height="60" as="geometry" />
        </mxCell>
        <mxCell id="xCrO2otD32kf0nrUWIwl-159" value="" style="edgeStyle=orthogonalEdgeStyle;rounded=0;orthogonalLoop=1;jettySize=auto;html=1;strokeWidth=3;entryX=0.006;entryY=0.344;entryDx=0;entryDy=0;entryPerimeter=0;fillColor=#f8cecc;strokeColor=#b85450;" edge="1" parent="xCrO2otD32kf0nrUWIwl-128" source="xCrO2otD32kf0nrUWIwl-154" target="xCrO2otD32kf0nrUWIwl-160">
          <mxGeometry relative="1" as="geometry">
            <mxPoint x="220" y="360" as="targetPoint" />
          </mxGeometry>
        </mxCell>
        <mxCell id="xCrO2otD32kf0nrUWIwl-154" value="&lt;span style=&quot;font-size: 20px;&quot;&gt;&lt;b&gt;state.&lt;font color=&quot;#ff6666&quot;&gt;count&lt;/font&gt;&lt;/b&gt;&lt;/span&gt;" style="shape=cube;whiteSpace=wrap;html=1;boundedLbl=1;backgroundOutline=1;darkOpacity=0.05;darkOpacity2=0.1;fillColor=#bac8d3;strokeColor=#23445d;" vertex="1" parent="xCrO2otD32kf0nrUWIwl-128">
          <mxGeometry x="45" y="210" width="150" height="100" as="geometry" />
        </mxCell>
        <mxCell id="xCrO2otD32kf0nrUWIwl-157" style="edgeStyle=orthogonalEdgeStyle;rounded=0;orthogonalLoop=1;jettySize=auto;html=1;exitX=0.5;exitY=1;exitDx=0;exitDy=0;entryX=0.499;entryY=-0.006;entryDx=0;entryDy=0;entryPerimeter=0;strokeWidth=3;fillColor=#dae8fc;strokeColor=#6c8ebf;" edge="1" parent="xCrO2otD32kf0nrUWIwl-128" source="xCrO2otD32kf0nrUWIwl-151" target="xCrO2otD32kf0nrUWIwl-154">
          <mxGeometry relative="1" as="geometry" />
        </mxCell>
        <mxCell id="xCrO2otD32kf0nrUWIwl-160" value="true" style="whiteSpace=wrap;html=1;fontSize=21;fontStyle=1;" vertex="1" parent="xCrO2otD32kf0nrUWIwl-128">
          <mxGeometry x="240" y="240" width="120" height="60" as="geometry" />
        </mxCell>
        <mxCell id="xCrO2otD32kf0nrUWIwl-162" value="false" style="whiteSpace=wrap;html=1;fontSize=21;fontStyle=1;fillColor=#dae8fc;strokeColor=#6c8ebf;" vertex="1" parent="xCrO2otD32kf0nrUWIwl-128">
          <mxGeometry x="60" y="340" width="120" height="60" as="geometry" />
        </mxCell>
        <mxCell id="xCrO2otD32kf0nrUWIwl-166" value="&lt;font style=&quot;font-size: 20px;&quot;&gt;&lt;b style=&quot;&quot;&gt;Progress.&lt;/b&gt;&lt;/font&gt;&lt;div style=&quot;font-size: 20px;&quot;&gt;&lt;font style=&quot;font-size: 20px;&quot;&gt;&lt;b style=&quot;&quot;&gt;comTurn&lt;/b&gt;&lt;/font&gt;&lt;/div&gt;" style="shape=cube;whiteSpace=wrap;html=1;boundedLbl=1;backgroundOutline=1;darkOpacity=0.05;darkOpacity2=0.1;fillColor=#ffe6cc;strokeColor=#d79b00;" vertex="1" parent="xCrO2otD32kf0nrUWIwl-128">
          <mxGeometry x="60" y="500" width="150" height="100" as="geometry" />
        </mxCell>
        <mxCell id="xCrO2otD32kf0nrUWIwl-172" style="edgeStyle=orthogonalEdgeStyle;rounded=0;orthogonalLoop=1;jettySize=auto;html=1;exitX=0;exitY=0;exitDx=65;exitDy=0;exitPerimeter=0;entryX=0.5;entryY=1;entryDx=0;entryDy=0;strokeWidth=3;fillColor=#f8cecc;strokeColor=#b85450;" edge="1" parent="xCrO2otD32kf0nrUWIwl-128" source="xCrO2otD32kf0nrUWIwl-168" target="xCrO2otD32kf0nrUWIwl-170">
          <mxGeometry relative="1" as="geometry" />
        </mxCell>
        <mxCell id="xCrO2otD32kf0nrUWIwl-168" value="&lt;span style=&quot;font-size: 20px;&quot;&gt;&lt;b&gt;state.&lt;font color=&quot;#ff6666&quot;&gt;count&lt;/font&gt;&lt;/b&gt;&lt;/span&gt;" style="shape=cube;whiteSpace=wrap;html=1;boundedLbl=1;backgroundOutline=1;darkOpacity=0.05;darkOpacity2=0.1;fillColor=#bac8d3;strokeColor=#23445d;" vertex="1" parent="xCrO2otD32kf0nrUWIwl-128">
          <mxGeometry x="410" y="500" width="150" height="100" as="geometry" />
        </mxCell>
        <mxCell id="xCrO2otD32kf0nrUWIwl-169" style="edgeStyle=orthogonalEdgeStyle;rounded=0;orthogonalLoop=1;jettySize=auto;html=1;exitX=0;exitY=0;exitDx=150;exitDy=60;exitPerimeter=0;entryX=-0.004;entryY=0.607;entryDx=0;entryDy=0;entryPerimeter=0;strokeWidth=3;fillColor=#dae8fc;strokeColor=#6c8ebf;" edge="1" parent="xCrO2otD32kf0nrUWIwl-128" source="xCrO2otD32kf0nrUWIwl-166" target="xCrO2otD32kf0nrUWIwl-168">
          <mxGeometry relative="1" as="geometry" />
        </mxCell>
        <mxCell id="xCrO2otD32kf0nrUWIwl-170" value="true" style="whiteSpace=wrap;html=1;fontSize=21;fontStyle=1;" vertex="1" parent="xCrO2otD32kf0nrUWIwl-128">
          <mxGeometry x="490" y="390" width="120" height="60" as="geometry" />
        </mxCell>
        <mxCell id="xCrO2otD32kf0nrUWIwl-171" value="false" style="whiteSpace=wrap;html=1;fontSize=21;fontStyle=1;fillColor=#dae8fc;strokeColor=#6c8ebf;" vertex="1" parent="xCrO2otD32kf0nrUWIwl-128">
          <mxGeometry x="410" y="290" width="120" height="60" as="geometry" />
        </mxCell>
        <mxCell id="xCrO2otD32kf0nrUWIwl-177" style="edgeStyle=orthogonalEdgeStyle;rounded=0;orthogonalLoop=1;jettySize=auto;html=1;exitX=0.5;exitY=0;exitDx=0;exitDy=0;strokeWidth=3;" edge="1" parent="xCrO2otD32kf0nrUWIwl-128" source="xCrO2otD32kf0nrUWIwl-149">
          <mxGeometry relative="1" as="geometry">
            <mxPoint x="540" y="60" as="targetPoint" />
          </mxGeometry>
        </mxCell>
        <mxCell id="xCrO2otD32kf0nrUWIwl-179" style="edgeStyle=orthogonalEdgeStyle;rounded=0;orthogonalLoop=1;jettySize=auto;html=1;exitX=0.5;exitY=1;exitDx=0;exitDy=0;entryX=0;entryY=0;entryDx=65;entryDy=0;entryPerimeter=0;strokeWidth=3;fillColor=#dae8fc;strokeColor=#6c8ebf;" edge="1" parent="xCrO2otD32kf0nrUWIwl-128" source="xCrO2otD32kf0nrUWIwl-129" target="xCrO2otD32kf0nrUWIwl-146">
          <mxGeometry relative="1" as="geometry" />
        </mxCell>
        <mxCell id="xCrO2otD32kf0nrUWIwl-180" style="edgeStyle=orthogonalEdgeStyle;rounded=0;orthogonalLoop=1;jettySize=auto;html=1;exitX=0;exitY=0;exitDx=85;exitDy=100;exitPerimeter=0;entryX=0.595;entryY=0.01;entryDx=0;entryDy=0;entryPerimeter=0;strokeWidth=3;fillColor=#dae8fc;strokeColor=#6c8ebf;" edge="1" parent="xCrO2otD32kf0nrUWIwl-128" source="xCrO2otD32kf0nrUWIwl-154" target="xCrO2otD32kf0nrUWIwl-162">
          <mxGeometry relative="1" as="geometry" />
        </mxCell>
        <mxCell id="xCrO2otD32kf0nrUWIwl-182" style="edgeStyle=orthogonalEdgeStyle;rounded=0;orthogonalLoop=1;jettySize=auto;html=1;exitX=0;exitY=0;exitDx=65;exitDy=0;exitPerimeter=0;entryX=0.542;entryY=1.022;entryDx=0;entryDy=0;entryPerimeter=0;strokeWidth=3;fillColor=#dae8fc;strokeColor=#6c8ebf;" edge="1" parent="xCrO2otD32kf0nrUWIwl-128" source="xCrO2otD32kf0nrUWIwl-168" target="xCrO2otD32kf0nrUWIwl-171">
          <mxGeometry relative="1" as="geometry" />
        </mxCell>
        <mxCell id="xCrO2otD32kf0nrUWIwl-183" style="edgeStyle=orthogonalEdgeStyle;rounded=0;orthogonalLoop=1;jettySize=auto;html=1;exitX=0.5;exitY=1;exitDx=0;exitDy=0;entryX=0.402;entryY=-0.008;entryDx=0;entryDy=0;entryPerimeter=0;fillColor=#dae8fc;strokeColor=#6c8ebf;strokeWidth=3;" edge="1" parent="xCrO2otD32kf0nrUWIwl-128" source="xCrO2otD32kf0nrUWIwl-162" target="xCrO2otD32kf0nrUWIwl-166">
          <mxGeometry relative="1" as="geometry" />
        </mxCell>
        <mxCell id="xCrO2otD32kf0nrUWIwl-185" style="edgeStyle=orthogonalEdgeStyle;rounded=0;orthogonalLoop=1;jettySize=auto;html=1;exitX=0.5;exitY=0;exitDx=0;exitDy=0;entryX=0;entryY=0;entryDx=85;entryDy=100;entryPerimeter=0;strokeWidth=3;fillColor=#dae8fc;strokeColor=#6c8ebf;" edge="1" parent="xCrO2otD32kf0nrUWIwl-128" source="xCrO2otD32kf0nrUWIwl-171" target="xCrO2otD32kf0nrUWIwl-146">
          <mxGeometry relative="1" as="geometry" />
        </mxCell>
        <mxCell id="xCrO2otD32kf0nrUWIwl-136" value="" style="group" vertex="1" connectable="0" parent="1">
          <mxGeometry x="170" y="-130" width="280" height="240" as="geometry" />
        </mxCell>
        <mxCell id="xCrO2otD32kf0nrUWIwl-122" style="edgeStyle=orthogonalEdgeStyle;rounded=0;orthogonalLoop=1;jettySize=auto;html=1;exitX=1;exitY=0.5;exitDx=0;exitDy=0;shape=flexArrow;strokeWidth=3;" edge="1" parent="xCrO2otD32kf0nrUWIwl-136" target="xCrO2otD32kf0nrUWIwl-121">
          <mxGeometry relative="1" as="geometry">
            <mxPoint x="-10.000000000005002" y="210" as="sourcePoint" />
          </mxGeometry>
        </mxCell>
        <mxCell id="xCrO2otD32kf0nrUWIwl-125" style="edgeStyle=orthogonalEdgeStyle;rounded=0;orthogonalLoop=1;jettySize=auto;html=1;exitX=0.5;exitY=0;exitDx=0;exitDy=0;entryX=0.5;entryY=1;entryDx=0;entryDy=0;strokeWidth=3;fillColor=#dae8fc;strokeColor=#6c8ebf;" edge="1" parent="xCrO2otD32kf0nrUWIwl-136" source="xCrO2otD32kf0nrUWIwl-121" target="xCrO2otD32kf0nrUWIwl-123">
          <mxGeometry relative="1" as="geometry" />
        </mxCell>
        <mxCell id="xCrO2otD32kf0nrUWIwl-126" style="edgeStyle=orthogonalEdgeStyle;rounded=0;orthogonalLoop=1;jettySize=auto;html=1;exitX=0.5;exitY=0;exitDx=0;exitDy=0;entryX=0.5;entryY=1;entryDx=0;entryDy=0;strokeWidth=3;fillColor=#dae8fc;strokeColor=#6c8ebf;" edge="1" parent="xCrO2otD32kf0nrUWIwl-136" source="xCrO2otD32kf0nrUWIwl-121" target="xCrO2otD32kf0nrUWIwl-124">
          <mxGeometry relative="1" as="geometry" />
        </mxCell>
        <mxCell id="xCrO2otD32kf0nrUWIwl-121" value="Math.random" style="rounded=0;whiteSpace=wrap;html=1;fontSize=26;" vertex="1" parent="xCrO2otD32kf0nrUWIwl-136">
          <mxGeometry x="60" y="180" width="170" height="60" as="geometry" />
        </mxCell>
        <mxCell id="xCrO2otD32kf0nrUWIwl-123" value="&lt;font style=&quot;font-size: 26px;&quot;&gt;1=후공&lt;/font&gt;" style="rounded=0;whiteSpace=wrap;html=1;" vertex="1" parent="xCrO2otD32kf0nrUWIwl-136">
          <mxGeometry width="120" height="60" as="geometry" />
        </mxCell>
        <mxCell id="xCrO2otD32kf0nrUWIwl-124" value="&lt;font style=&quot;font-size: 26px;&quot;&gt;0=선공&lt;/font&gt;" style="rounded=0;whiteSpace=wrap;html=1;" vertex="1" parent="xCrO2otD32kf0nrUWIwl-136">
          <mxGeometry x="160" width="120" height="60" as="geometry" />
        </mxCell>
        <mxCell id="xCrO2otD32kf0nrUWIwl-145" style="edgeStyle=orthogonalEdgeStyle;rounded=0;orthogonalLoop=1;jettySize=auto;html=1;exitX=0;exitY=0;exitDx=50.00000000000001;exitDy=0;exitPerimeter=0;entryX=0;entryY=0.5;entryDx=0;entryDy=0;strokeWidth=3;fillColor=#dae8fc;strokeColor=#6c8ebf;" edge="1" parent="1" source="xCrO2otD32kf0nrUWIwl-139" target="xCrO2otD32kf0nrUWIwl-129">
          <mxGeometry relative="1" as="geometry" />
        </mxCell>
        <mxCell id="xCrO2otD32kf0nrUWIwl-139" value="&lt;font style=&quot;font-size: 17px;&quot;&gt;&lt;b style=&quot;font-size: 17px;&quot;&gt;Progress.&lt;/b&gt;&lt;/font&gt;&lt;div style=&quot;font-size: 17px;&quot;&gt;&lt;font style=&quot;font-size: 17px;&quot;&gt;&lt;b style=&quot;font-size: 17px;&quot;&gt;view&lt;/b&gt;&lt;/font&gt;&lt;/div&gt;" style="shape=cube;whiteSpace=wrap;html=1;boundedLbl=1;backgroundOutline=1;darkOpacity=0.05;darkOpacity2=0.1;fillColor=#ffe6cc;strokeColor=#d79b00;fontSize=17;" vertex="1" parent="1">
          <mxGeometry x="320" y="-280" width="120" height="80" as="geometry" />
        </mxCell>
        <mxCell id="xCrO2otD32kf0nrUWIwl-140" style="edgeStyle=orthogonalEdgeStyle;rounded=0;orthogonalLoop=1;jettySize=auto;html=1;exitX=0.5;exitY=0;exitDx=0;exitDy=0;entryX=0;entryY=0;entryDx=70;entryDy=80;entryPerimeter=0;strokeWidth=3;fillColor=#dae8fc;strokeColor=#6c8ebf;" edge="1" parent="1" source="xCrO2otD32kf0nrUWIwl-124" target="xCrO2otD32kf0nrUWIwl-139">
          <mxGeometry relative="1" as="geometry" />
        </mxCell>
        <mxCell id="xCrO2otD32kf0nrUWIwl-144" style="edgeStyle=orthogonalEdgeStyle;rounded=0;orthogonalLoop=1;jettySize=auto;html=1;exitX=0;exitY=0;exitDx=50.00000000000001;exitDy=0;exitPerimeter=0;entryX=0;entryY=0.5;entryDx=0;entryDy=0;strokeWidth=3;fillColor=#dae8fc;strokeColor=#6c8ebf;" edge="1" parent="1" source="xCrO2otD32kf0nrUWIwl-141" target="xCrO2otD32kf0nrUWIwl-129">
          <mxGeometry relative="1" as="geometry" />
        </mxCell>
        <mxCell id="xCrO2otD32kf0nrUWIwl-141" value="&lt;font style=&quot;font-size: 17px;&quot;&gt;&lt;b style=&quot;font-size: 17px;&quot;&gt;Progress.&lt;/b&gt;&lt;/font&gt;&lt;div style=&quot;font-size: 17px;&quot;&gt;&lt;font style=&quot;font-size: 17px;&quot;&gt;&lt;b style=&quot;font-size: 17px;&quot;&gt;comTurn&lt;/b&gt;&lt;/font&gt;&lt;/div&gt;" style="shape=cube;whiteSpace=wrap;html=1;boundedLbl=1;backgroundOutline=1;darkOpacity=0.05;darkOpacity2=0.1;fillColor=#ffe6cc;strokeColor=#d79b00;fontSize=17;" vertex="1" parent="1">
          <mxGeometry x="160" y="-280" width="120" height="80" as="geometry" />
        </mxCell>
        <mxCell id="xCrO2otD32kf0nrUWIwl-142" style="edgeStyle=orthogonalEdgeStyle;rounded=0;orthogonalLoop=1;jettySize=auto;html=1;exitX=0.5;exitY=0;exitDx=0;exitDy=0;entryX=0;entryY=0;entryDx=70;entryDy=80;entryPerimeter=0;strokeWidth=3;fillColor=#dae8fc;strokeColor=#6c8ebf;" edge="1" parent="1" source="xCrO2otD32kf0nrUWIwl-123" target="xCrO2otD32kf0nrUWIwl-141">
          <mxGeometry relative="1" as="geometry" />
        </mxCell>
        <mxCell id="xCrO2otD32kf0nrUWIwl-143" value="Play.play" style="shape=cube;whiteSpace=wrap;html=1;boundedLbl=1;backgroundOutline=1;darkOpacity=0.05;darkOpacity2=0.1;fontSize=26;fontStyle=1;fillColor=#dae8fc;strokeColor=#6c8ebf;" vertex="1" parent="1">
          <mxGeometry y="20" width="160" height="106.67" as="geometry" />
        </mxCell>
        <mxCell id="xCrO2otD32kf0nrUWIwl-164" value="종료" style="ellipse;whiteSpace=wrap;html=1;aspect=fixed;fontStyle=1;fontSize=31;fillColor=#dae8fc;strokeColor=#6c8ebf;" vertex="1" parent="1">
          <mxGeometry x="1440" y="-170" width="160" height="160" as="geometry" />
        </mxCell>
        <mxCell id="xCrO2otD32kf0nrUWIwl-165" style="edgeStyle=orthogonalEdgeStyle;rounded=0;orthogonalLoop=1;jettySize=auto;html=1;exitX=1;exitY=0.5;exitDx=0;exitDy=0;entryX=0;entryY=0.5;entryDx=0;entryDy=0;strokeWidth=3;fillColor=#f8cecc;strokeColor=#b85450;" edge="1" parent="1" source="xCrO2otD32kf0nrUWIwl-160" target="xCrO2otD32kf0nrUWIwl-164">
          <mxGeometry relative="1" as="geometry" />
        </mxCell>
        <mxCell id="xCrO2otD32kf0nrUWIwl-174" style="edgeStyle=orthogonalEdgeStyle;rounded=0;orthogonalLoop=1;jettySize=auto;html=1;exitX=1;exitY=0.5;exitDx=0;exitDy=0;entryX=0;entryY=0.5;entryDx=0;entryDy=0;strokeWidth=3;fillColor=#f8cecc;strokeColor=#b85450;" edge="1" parent="1" source="xCrO2otD32kf0nrUWIwl-170" target="xCrO2otD32kf0nrUWIwl-164">
          <mxGeometry relative="1" as="geometry" />
        </mxCell>
        <mxCell id="xCrO2otD32kf0nrUWIwl-184" value="&lt;font style=&quot;font-size: 26px;&quot;&gt;break&lt;/font&gt;" style="edgeLabel;html=1;align=center;verticalAlign=middle;resizable=0;points=[];fontColor=#FF0000;" vertex="1" connectable="0" parent="xCrO2otD32kf0nrUWIwl-174">
          <mxGeometry x="0.6158" y="3" relative="1" as="geometry">
            <mxPoint x="-62" y="3" as="offset" />
          </mxGeometry>
        </mxCell>
        <mxCell id="xCrO2otD32kf0nrUWIwl-191" style="edgeStyle=orthogonalEdgeStyle;rounded=0;orthogonalLoop=1;jettySize=auto;html=1;exitX=0;exitY=0;exitDx=85;exitDy=100;exitPerimeter=0;entryX=0.5;entryY=0;entryDx=0;entryDy=0;strokeWidth=4;fillColor=#d5e8d4;strokeColor=#82b366;" edge="1" parent="1" source="xCrO2otD32kf0nrUWIwl-189" target="xCrO2otD32kf0nrUWIwl-12">
          <mxGeometry relative="1" as="geometry" />
        </mxCell>
        <mxCell id="xCrO2otD32kf0nrUWIwl-189" value="&lt;span style=&quot;font-size: 20px;&quot;&gt;&lt;b&gt;state.&lt;/b&gt;&lt;/span&gt;&lt;div&gt;&lt;span style=&quot;font-size: 20px;&quot;&gt;&lt;b&gt;&lt;font color=&quot;#ff6666&quot;&gt;printResult&lt;/font&gt;&lt;/b&gt;&lt;/span&gt;&lt;/div&gt;" style="shape=cube;whiteSpace=wrap;html=1;boundedLbl=1;backgroundOutline=1;darkOpacity=0.05;darkOpacity2=0.1;fillColor=#bac8d3;strokeColor=#23445d;" vertex="1" parent="1">
          <mxGeometry x="1450" y="540" width="150" height="100" as="geometry" />
        </mxCell>
        <mxCell id="xCrO2otD32kf0nrUWIwl-190" style="edgeStyle=orthogonalEdgeStyle;rounded=0;orthogonalLoop=1;jettySize=auto;html=1;exitX=1;exitY=0.5;exitDx=0;exitDy=0;entryX=-0.033;entryY=0.6;entryDx=0;entryDy=0;entryPerimeter=0;strokeWidth=3;fillColor=#d5e8d4;strokeColor=#82b366;" edge="1" parent="1" source="xCrO2otD32kf0nrUWIwl-14" target="xCrO2otD32kf0nrUWIwl-189">
          <mxGeometry relative="1" as="geometry" />
        </mxCell>
        <mxCell id="xCrO2otD32kf0nrUWIwl-192" value="&lt;font style=&quot;font-size: 31px;&quot;&gt;Progress&lt;/font&gt;" style="ellipse;whiteSpace=wrap;html=1;aspect=fixed;fontStyle=1;fontSize=31;fillColor=#ffe6cc;strokeColor=#d79b00;" vertex="1" parent="1">
          <mxGeometry y="-830" width="160" height="160" as="geometry" />
        </mxCell>
      </root>
    </mxGraphModel>
  </diagram>
</mxfile>
